<svg xmlns="http://www.w3.org/2000/svg" version="1.1" xmlns:xlink="http://www.w3.org/1999/xlink" xmlns:svgjs="http://svgjs.dev/svgjs" width="1000" height="1000" viewBox="0 0 1000 1000"><rect width="1000" height="1000" fill="#0a1627"></rect><g transform="matrix(0.7,0,0,0.7,150,219.1358699200045)"><svg viewBox="0 0 448 360" data-background-color="#0a1627" preserveAspectRatio="xMidYMid meet" height="803" width="1000" xmlns="http://www.w3.org/2000/svg" xmlns:xlink="http://www.w3.org/1999/xlink"><g id="tight-bounds" transform="matrix(1,0,0,1,0,-0.11904140046539169)"><svg viewBox="0 0 448 360" height="360" width="448"><g><svg></svg></g><g><svg viewBox="0 0 448 360" height="360" width="448"><g><path transform="translate(36.9151,-7.08178) scale(0.00624,0.00624)" d="M25167 8301c221 0 400 179 400 400 0 221-179 400-400 400h-3824l-2753 2753c-156 156-409 156-566 0-156-156-156-409 0-566l2188-2188h-6475c-1847 0-3071 431-3819 1301-760 885-1068 2254-1068 4110 0 11 0 22-1 33l34 5884 2356-2356c156-156 409-156 566 0 156 156 156 409 0 566l-2915 2915c33 5746 31 11443-2 17189 4087 4041 8117 8068 12157 12154h4070c221 0 400 179 400 400 0 221-179 400-400 400h-3279l4160 4208 1-1c1313 1313 2498 2062 3660 2151 1146 87 2316-474 3622-1779l4579-4579h-3323c-221 0-400-179-400-400 0-221 179-400 400-400h4123l2666-2666c156-156 409-156 566 0 156 156 156 409 0 566l-2101 2101h6475c1847 0 3071-431 3819-1301 760-885 1068-2254 1068-4110h2l-34-5917-2568 2568c-156 156-409 156-566 0-156-156-156-409 0-566l3127-3127c-33-5746-31-11443 2-17189-4087-4041-8117-8068-12157-12154h-4193c-221 0-400-179-400-400 0-221 179-400 400-400h3402l-4141-4189c-7-6-13-12-20-18-1313-1313-2498-2062-3660-2151-1146-87-2316 474-3622 1779l-4579 4579h3024zM13737 8301h7275l5144-5144c1483-1483 2856-2116 4247-2010 1374 104 2719 934 4167 2382 8 8 15 15 22 23l4695 4749h6977c2096 0 3515 524 4425 1583 898 1045 1261 2582 1261 4629 0 13-1 25-2 37l-36 6373 4559 4508 1-1c1448 1448 2278 2792 2382 4167 106 1391-528 2764-2010 4247l-4934 4934 38 6710h2c0 2047-364 3584-1261 4629-910 1059-2329 1583-4425 1583h-7275l-5144 5144c-1483 1483-2856 2116-4247 2010-1374-104-2719-934-4167-2382l1-1-4718-4772h-6977c-2096 0-3515-524-4425-1583-898-1045-1261-2582-1261-4629h2l37-6410-4537-4485c-8-7-16-14-23-22-1448-1448-2278-2792-2382-4167-106-1391 528-2764 2010-4247l4934-4934-38-6672c-1-12-2-25-2-37 0-2047 364-3584 1261-4629 910-1059 2329-1583 4425-1583zM8141 30000l-44-7653-4374 4374c-1305 1305-1866 2476-1779 3622 88 1162 838 2348 2151 3660 6 6 13 13 18 20l3983 3937 45-7961zM8882 39860l-32 5627h2c0 1857 308 3226 1068 4110 748 871 1972 1301 3819 1301h6186l-5380-5442-5662-5597zM46264 9101h-6186l5380 5442 5662 5597 32-5594c-1-11-1-22-1-33 0-1857-308-3226-1068-4110-748-871-1972-1301-3819-1301zM51906 22039l-45 7961 44 7653 4374-4374c1305-1305 1866-2476 1779-3622-88-1163-838-2348-2151-3660l1-1-4002-3956z" fill="#fe0039" fill-rule="nonzero" stroke="none" stroke-width="1" stroke-linecap="butt" stroke-linejoin="miter" stroke-miterlimit="10" stroke-dasharray="" stroke-dashoffset="0" font-family="none" font-weight="none" font-size="none" text-anchor="none" style="mix-blend-mode: normal" data-fill-palette-color="tertiary"></path></g><g transform="matrix(1,0,0,1,134,90)"><svg viewBox="0 0 180 180" height="180" width="180"><g><svg viewBox="0 0 180 180" height="180" width="180"><g><svg viewBox="0 0 180 180" height="180" width="180"><g id="textblocktransform"><svg viewBox="0 0 180 180" height="180" width="180" id="textblock"><g><svg viewBox="0 0 180 180" height="180" width="180"><g transform="matrix(1,0,0,1,47.57359312880715,56.31996008379152)"><svg viewBox="0 0 84.8528137423857 67.36007983241696" height="67.36007983241696" width="84.8528137423857"><g><svg xmlns="http://www.w3.org/2000/svg" xmlns:xlink="http://www.w3.org/1999/xlink" version="1.1" x="0" y="0" viewBox="15.5 22.200000000000003 65 51.599999999999994" enable-background="new 0 0 96 96" xml:space="preserve" height="67.36007983241696" width="84.8528137423857" class="icon-kg-0" data-fill-palette-color="accent" id="kg-0"><g fill="#c1c1c1" data-fill-palette-color="accent"><path d="M46.4 52.6c-4.2-4.1-7.9-7.7-10-16h14.7v-6.2H36.5v-8.2h-6.3v8.3H15.5v6.2h15c0 0-0.1 1.2-0.3 2.1-2.1 8.2-4.6 13.4-14.7 18.5l2.1 6.2c9.6-5.1 14.6-11.5 16.8-18.6 2.1 5.4 5.7 9.8 9.8 13.8L46.4 52.6z" fill="#c1c1c1" data-fill-palette-color="accent"></path><path d="M65.8 32.5h-8.4L42.7 73.8H49l4.2-12.4H70l4.2 12.4h6.3L65.8 32.5zM55.3 55.2l6.3-16.5 6.3 16.6L55.3 55.2 55.3 55.2z" fill="#c1c1c1" data-fill-palette-color="accent"></path></g></svg></g></svg></g><g><path d="M82.949 17.648v0c-0.282 0.204-0.603 0.304-0.963 0.3-0.367-0.004-0.659-0.1-0.877-0.288-0.211-0.189-0.316-0.406-0.313-0.654 0.002-0.247 0.041-0.426 0.115-0.538v0c0.219 0.135 0.491 0.205 0.818 0.208 0.327 0.003 0.574-0.041 0.741-0.133 0.161-0.085 0.319-0.204 0.474-0.355v0l1.677-4.804 0.238-0.787c0.069-0.239 0.105-0.459 0.107-0.659v0c0.007-0.693-0.315-1.14-0.967-1.34v0c0.602-0.221 1.028-0.463 1.277-0.727v0c0.384-0.416 0.69-0.97 0.917-1.661v0l1.311-4.217c-0.243-0.329-0.535-0.495-0.875-0.499-0.333-0.003-0.647 0.067-0.942 0.211v0c-0.072-0.141-0.107-0.298-0.105-0.471 0.002-0.167 0.04-0.326 0.114-0.479 0.075-0.153 0.176-0.285 0.304-0.397v0c0.296-0.244 0.71-0.363 1.244-0.358 0.533 0.005 0.985 0.17 1.355 0.494v0c0.39-0.316 0.868-0.471 1.435-0.466 0.573 0.006 1.025 0.163 1.355 0.473v0c0.49-0.302 0.988-0.45 1.494-0.445 0.507 0.005 0.899 0.106 1.177 0.302 0.271 0.189 0.406 0.451 0.403 0.784v0c-0.001 0.147-0.046 0.28-0.134 0.398v0c-0.179-0.135-0.385-0.204-0.618-0.206v0c-0.513-0.005-0.85 0.342-1.01 1.04v0l1.423 4.694c0.174 0.595 0.626 1.06 1.356 1.394v0c0.206 0.095 0.415 0.181 0.628 0.256v0c-0.762 0.246-1.146 0.622-1.151 1.128v0c-0.002 0.187 0.026 0.354 0.085 0.501v0l2.131 5.891c0.33 0.357 0.668 0.537 1.015 0.54 0.347 0.003 0.614-0.061 0.802-0.192v0c0.086 0.068 0.128 0.185 0.126 0.352-0.002 0.167-0.03 0.32-0.084 0.459-0.055 0.139-0.139 0.265-0.254 0.377v0c-0.249 0.224-0.61 0.334-1.083 0.33-0.473-0.005-0.885-0.139-1.236-0.403v0c-0.403 0.256-0.854 0.382-1.354 0.377-0.5-0.005-0.929-0.136-1.286-0.393v0c-0.342 0.25-0.747 0.373-1.214 0.368-0.467-0.005-0.852-0.105-1.157-0.301-0.305-0.203-0.462-0.481-0.471-0.835v0c0.002-0.22 0.044-0.356 0.124-0.409v0c0.205 0.135 0.418 0.204 0.638 0.207v0c0.447 0.004 0.764-0.086 0.952-0.271v0l-0.841-2.928-6.209-0.062-0.775 2.523c0.308 0.49 0.686 0.737 1.133 0.741 0.447 0.004 0.781-0.059 1.001-0.19v0c0.085 0.141 0.127 0.331 0.125 0.571-0.002 0.24-0.124 0.449-0.366 0.626-0.235 0.178-0.543 0.265-0.923 0.261-0.373-0.004-0.716-0.104-1.027-0.3v0c-0.275 0.191-0.589 0.284-0.943 0.281-0.36-0.004-0.666-0.11-0.917-0.319zM86.116 11.909l5.28 0.052-2.573-8.865zM92.974 13.117l0.584 1.676c0.133 0.001 0.202-0.151 0.204-0.458v0c0.005-0.533-0.07-1.054-0.224-1.563v0l-0.427-1.344c-0.29-1.01-0.434-1.644-0.431-1.904v0c-0.009-0.427 0.18-0.708 0.568-0.844v0c-0.526-0.112-0.844-0.278-0.955-0.5v0c-0.059-0.094-0.105-0.168-0.138-0.221-0.033-0.054-0.066-0.117-0.098-0.191-0.033-0.074-0.072-0.167-0.117-0.281-0.046-0.114-0.104-0.278-0.175-0.492v0l-0.689-2.157c-0.168-0.535-0.414-0.941-0.738-1.217v0c-0.099-0.088-0.189-0.139-0.268-0.153v0c0.488 1.851 0.81 3.038 0.964 3.56v0c1.079 3.424 1.726 5.454 1.94 6.089zM96.947 15.926l-0.02-0.07z" fill="#fe0039" data-fill-palette-color="primary"></path><path d="M83.176 179.681v0c-0.278 0.209-0.597 0.316-0.957 0.319-0.36 0.004-0.648-0.087-0.863-0.272-0.215-0.185-0.324-0.397-0.326-0.637-0.002-0.24 0.033-0.417 0.105-0.531v0c0.221 0.125 0.492 0.185 0.812 0.183 0.32-0.003 0.56-0.049 0.718-0.137 0.166-0.088 0.321-0.21 0.467-0.365v0l1.564-4.775 0.222-0.782c0.064-0.234 0.096-0.451 0.094-0.651v0c-0.007-0.687-0.334-1.12-0.983-1.301v0c0.591-0.232 1.005-0.483 1.243-0.752v0c0.376-0.417 0.671-0.967 0.884-1.648v0l1.199-4.182c-0.243-0.324-0.531-0.485-0.865-0.482-0.333 0.003-0.643 0.076-0.928 0.219v0c-0.075-0.133-0.113-0.282-0.114-0.449-0.002-0.173 0.033-0.337 0.105-0.491 0.072-0.147 0.171-0.278 0.296-0.392v0c0.284-0.243 0.69-0.367 1.217-0.372 0.527-0.005 0.978 0.147 1.354 0.457v0c0.37-0.317 0.839-0.478 1.406-0.484 0.56-0.005 1.008 0.14 1.344 0.437v0c0.477-0.305 0.966-0.459 1.465-0.464 0.5-0.005 0.887 0.085 1.163 0.268 0.275 0.184 0.414 0.439 0.417 0.766v0c0.001 0.153-0.041 0.287-0.126 0.401v0c-0.175-0.132-0.379-0.196-0.612-0.194v0c-0.507 0.005-0.833 0.351-0.98 1.04v0l1.495 4.615c0.186 0.578 0.643 1.027 1.373 1.347v0c0.201 0.091 0.408 0.173 0.623 0.244v0c-0.751 0.254-1.124 0.631-1.119 1.131v0c0.002 0.187 0.033 0.353 0.095 0.499v0l2.216 5.768c0.337 0.343 0.675 0.513 1.015 0.511 0.34-0.003 0.603-0.069 0.788-0.198v0c0.081 0.059 0.122 0.172 0.123 0.339 0.002 0.167-0.02 0.32-0.065 0.46-0.052 0.141-0.134 0.265-0.247 0.373v0c-0.244 0.229-0.6 0.346-1.066 0.35-0.467 0.005-0.875-0.121-1.224-0.378v0c-0.391 0.264-0.833 0.398-1.326 0.403-0.493 0.005-0.918-0.118-1.274-0.368v0c-0.338 0.257-0.736 0.387-1.196 0.392-0.46 0.004-0.844-0.088-1.153-0.279-0.302-0.19-0.461-0.462-0.478-0.815v0c-0.002-0.213 0.037-0.347 0.117-0.401v0c0.208 0.125 0.418 0.186 0.631 0.183v0c0.44-0.004 0.749-0.097 0.928-0.279v0l-0.888-2.871-6.12 0.06-0.725 2.507c0.318 0.47 0.697 0.703 1.136 0.699 0.44-0.004 0.769-0.071 0.988-0.2v0c0.088 0.132 0.133 0.319 0.136 0.559 0.002 0.233-0.116 0.441-0.354 0.623-0.232 0.182-0.531 0.275-0.897 0.279-0.373 0.004-0.714-0.09-1.023-0.28v0c-0.271 0.196-0.58 0.296-0.927 0.299-0.353 0.003-0.654-0.097-0.903-0.301zM86.18 173.961l5.21-0.05-2.715-8.704zM92.971 175.015l0.606 1.644c0.14-0.001 0.209-0.152 0.205-0.452v0c-0.005-0.527-0.09-1.039-0.255-1.537v0l-0.443-1.326c-0.31-0.99-0.466-1.612-0.468-1.865v0c-0.017-0.426 0.163-0.708 0.542-0.846v0c-0.521-0.102-0.839-0.262-0.955-0.48v0c-0.054-0.086-0.098-0.156-0.132-0.209-0.034-0.053-0.068-0.116-0.102-0.189-0.034-0.073-0.075-0.166-0.122-0.279-0.048-0.113-0.109-0.272-0.185-0.478v0l-0.721-2.113c-0.172-0.525-0.422-0.923-0.751-1.193v0c-0.101-0.086-0.191-0.135-0.272-0.147v0c0.524 1.822 0.866 2.988 1.024 3.5v0c1.133 3.356 1.809 5.346 2.029 5.97zM96.947 177.717l-0.021-0.07z" fill="#fe0039" data-fill-palette-color="primary"></path><path d="M2.214 92.018c0-3.749 3.039-6.788 6.788-6.788 3.749 0 6.788 3.039 6.788 6.788 0 3.749-3.039 6.788-6.788 6.788-3.749 0-6.788-3.039-6.788-6.788z" fill="#fe0039" data-fill-palette-color="primary"></path><path d="M164.21 92.018c0-3.749 3.039-6.788 6.788-6.788 3.749 0 6.788 3.039 6.788 6.788 0 3.749-3.039 6.788-6.788 6.788-3.749 0-6.788-3.039-6.788-6.788z" fill="#fe0039" data-fill-palette-color="primary"></path></g></svg></g></svg></g></svg></g><g></g></svg></g></svg></g></svg></g><defs></defs></svg><rect width="448" height="360" fill="none" stroke="none" visibility="hidden"></rect></g></svg></g></svg>